<svg width="32" height="32" viewBox="0 0 32 32" fill="none" xmlns="http://www.w3.org/2000/svg">
<g clip-path="url(#clip0_313_3446)">
<path fill-rule="evenodd" clip-rule="evenodd" d="M16 32C7.163 32 0 24.837 0 16C0 7.163 7.163 0 16 0C24.837 0 32 7.163 32 16C32 24.837 24.837 32 16 32ZM8 19.004H9.994C11.0973 23.0007 13.7327 24.9993 17.9 25C19.4847 25 20.8513 24.784 22 24.352V21.979C20.7913 22.4723 19.68 22.719 18.666 22.719C17.2467 22.719 16.1543 22.4473 15.389 21.904C14.6223 21.3593 13.9727 20.3927 13.44 19.004H18.396L19.196 17.001H13.012C12.982 16.623 12.967 16.1947 12.967 15.716C12.967 15.3 12.9857 14.9683 13.023 14.721H20.119L20.93 12.718H13.508C14.2213 10.426 15.8243 9.28 18.317 9.28C19.5859 9.27315 20.8417 9.53773 22 10.056V7.532C20.7325 7.17217 19.4206 6.99307 18.103 7C13.943 7 11.2697 8.906 10.083 12.718H8.812L8 14.721H9.69C9.65095 15.1365 9.63192 15.5537 9.633 15.971C9.633 16.303 9.64433 16.6463 9.667 17.001H8.81L8 19.004Z" fill="currentColor"/>
</g>
<defs>
<clipPath id="clip0_313_3446">
<rect width="32" height="32" fill="white"/>
</clipPath>
</defs>
</svg>
