<svg width="10" height="10" viewBox="0 0 10 10" fill="none" xmlns="http://www.w3.org/2000/svg">
<path d="M5 10C3.9931 10 3.09069 9.72983 2.29276 9.1895C1.4945 8.64917 0.895315 7.92217 0.495197 7.0085V8.6535H0V6.1535H2.47598V6.6535H0.889373C1.2096 7.51017 1.7459 8.19867 2.49827 8.719C3.25064 9.23933 4.08455 9.49967 5 9.5C5.59358 9.5 6.15117 9.3925 6.67277 9.1775C7.19438 8.96217 7.65376 8.66533 8.05091 8.287C8.44772 7.90833 8.7701 7.459 9.01803 6.939C9.26595 6.419 9.40907 5.856 9.44736 5.25H9.94256C9.91053 5.912 9.75867 6.5315 9.48698 7.1085C9.21528 7.6855 8.85857 8.18883 8.41686 8.6185C7.97514 9.04817 7.46096 9.38583 6.87432 9.6315C6.28669 9.87717 5.66191 10 5 10ZM4.74448 8.308V7.696C4.40774 7.61733 4.1207 7.48233 3.88333 7.291C3.64597 7.09967 3.45697 6.83267 3.31633 6.49L3.7521 6.2995C3.88944 6.60917 4.07283 6.84783 4.30227 7.0155C4.53171 7.18317 4.78905 7.267 5.07428 7.267C5.36579 7.267 5.63864 7.1895 5.89284 7.0345C6.14704 6.87983 6.27414 6.6265 6.27414 6.2745C6.27414 5.9945 6.18253 5.7745 5.99931 5.6145C5.81608 5.4545 5.45822 5.27583 4.92572 5.0785C4.39421 4.88417 4.0167 4.679 3.79321 4.463C3.56938 4.247 3.45746 3.95917 3.45746 3.5995C3.45746 3.29617 3.5702 3.01617 3.79568 2.7595C4.02116 2.50283 4.34585 2.3425 4.76973 2.2785V1.692H5.25503V2.279C5.51418 2.29767 5.756 2.388 5.98049 2.55C6.20498 2.712 6.37533 2.91333 6.49153 3.154L6.06071 3.325C5.95672 3.146 5.82087 2.99833 5.65316 2.882C5.48546 2.76567 5.27599 2.70767 5.02476 2.708C4.69793 2.708 4.43581 2.79283 4.23839 2.9625C4.04097 3.13217 3.94275 3.34467 3.94375 3.6C3.94474 3.85533 4.0205 4.05183 4.17104 4.1895C4.3229 4.32717 4.67185 4.49217 5.21789 4.6845C5.81212 4.90117 6.21455 5.13283 6.42518 5.3795C6.63613 5.6265 6.74161 5.925 6.74161 6.275C6.74161 6.51033 6.69539 6.7165 6.60295 6.8935C6.51118 7.07017 6.39233 7.21683 6.24641 7.3335C6.10082 7.44983 5.93889 7.5395 5.76062 7.6025C5.58235 7.6655 5.40573 7.705 5.23076 7.721V8.308H4.74448ZM0.057938 4.75C0.102506 4.05567 0.26394 3.4185 0.54224 2.8385C0.820541 2.2585 1.18368 1.75683 1.63167 1.3335C2.07966 0.910167 2.59186 0.582333 3.16827 0.35C3.74468 0.117667 4.35525 0.001 5 0C5.98775 0 6.89016 0.271667 7.70724 0.815C8.52431 1.35833 9.1235 2.09667 9.5048 3.03V1.346H10V3.846H7.52402V3.346H9.11112C8.81037 2.51533 8.282 1.83333 7.526 1.3C6.77 0.766667 5.928 0.5 5 0.5C4.43184 0.5 3.88861 0.604333 3.37031 0.813C2.852 1.02167 2.39097 1.312 1.98722 1.684C1.58347 2.056 1.25301 2.50217 0.99584 3.0225C0.738668 3.54283 0.5911 4.11867 0.553135 4.75H0.057938Z" fill="currentColor"/>
</svg>
