<svg width="32" height="32" viewBox="0 0 32 32" fill="none" xmlns="http://www.w3.org/2000/svg">
<g clip-path="url(#clip0_314_3694)">
<path fill-rule="evenodd" clip-rule="evenodd" d="M16 32C7.163 32 0 24.837 0 16C0 7.163 7.163 0 16 0C24.837 0 32 7.163 32 16C32 24.837 24.837 32 16 32ZM10.5 15.238V17.046H12.264V19.654H10.5V21.359H12.264V25H14.252V21.359H18.252V19.654H14.252V17.046H16.761C17.5253 17.0512 18.2863 16.9468 19.021 16.736C19.717 16.5293 20.3217 16.215 20.835 15.793C21.349 15.3723 21.755 14.843 22.053 14.205C22.351 13.5683 22.5 12.8193 22.5 11.958C22.5 11.098 22.3593 10.358 22.078 9.738C21.796 9.118 21.4067 8.60567 20.91 8.201C20.165 7.594 19.817 7.495 19.121 7.297C18.3685 7.09122 17.5911 6.99126 16.811 7H12.264V15.238H10.5ZM16.81 15.238H14.252V8.808H16.811C17.953 8.808 18.8513 9.05767 19.506 9.557C20.1607 10.0563 20.488 10.8567 20.488 11.958C20.488 13.06 20.1607 13.8823 19.506 14.425C18.8513 14.967 17.953 15.238 16.811 15.238H16.81Z" fill="currentColor"/>
</g>
<defs>
<clipPath id="clip0_314_3694">
<rect width="32" height="32" fill="white"/>
</clipPath>
</defs>
</svg>
