<svg width="32" height="32" viewBox="0 0 32 32" fill="none" xmlns="http://www.w3.org/2000/svg">
<g clip-path="url(#clip0_314_3696)">
<path fill-rule="evenodd" clip-rule="evenodd" d="M16 32C7.163 32 0 24.837 0 16C0 7.163 7.163 0 16 0C24.837 0 32 7.163 32 16C32 24.837 24.837 32 16 32ZM22.5 19.154C22.5 16.631 20.924 15.206 17.237 14.318V9.878C18.377 10.112 19.468 10.603 20.535 11.374L21.894 9.178C20.5552 8.19795 18.983 7.58563 17.334 7.402V6H15.224V7.355C12.192 7.589 10.131 9.318 10.131 11.841C10.131 14.481 11.78 15.766 15.321 16.654V21.234C13.744 21 12.435 20.299 11.052 19.224L9.5 21.35C11.1614 22.6287 13.1407 23.4288 15.224 23.664V26H17.334V23.687C20.414 23.43 22.5 21.724 22.5 19.154ZM15.32 13.827C13.453 13.29 12.993 12.659 12.993 11.677C12.993 10.65 13.793 9.832 15.321 9.715L15.32 13.827ZM19.638 19.317C19.638 20.439 18.765 21.21 17.237 21.327V17.098C19.129 17.636 19.638 18.266 19.638 19.318V19.317Z" fill="currentColor"/>
</g>
<defs>
<clipPath id="clip0_314_3696">
<rect width="32" height="32" fill="white"/>
</clipPath>
</defs>
</svg>
